ISO-10303-21;
HEADER;
FILE_DESCRIPTION(('ViewDefinition [CoordinationView_V2.0, QuantityTakeOffAddOnView]','Option [Elements to export: Visible elements (on all stories)]','Option [Partial Structure Display: Entire Model]','Option [IFC Domain: All]','Option [Structural Function: All Elements]','Option [Convert Grid elements: On]','Option [Convert IFC Annotations and Archicad 2D elements: Off]','Option [Convert 2D symbols of Doors and Windows: Off]','Option [Export geometries that Participates in Collision Detection only: Off]','Option [Split complex elements: Off]','Option [Material Preservation: Explode where necessary]','Option [Elements in Solid Element Operations: Extruded/revolved]','Option [Elements with junctions: Extruded/revolved]','Option [IFC Model position: Survey Point and Project Origin]','Option [Curtain Wall export mode: Single Element]','Option [Railing export mode: Single Element]','Option [Stair export mode: Single Element]','Option [Properties To Export: All properties]','Option [Space containment: Off]','Option [Geometry to type objects: Off]','Option [Element Properties: Off]','Option [Building Material Properties: Off]','Option [Element Parameters: Off]','Option [Component Parameters: Off]','Option [IFC Base Quantities: On]','Option [Door Window Parameters: Off]','Option [IFC Space boundaries: Off]','Option [Archicad Zone Categories as IFC Space classification data: Off]','Option [Element Classifications: Off]'),'2;1');
FILE_NAME('/Users/vanessahafner/Library/CloudStorage/OneDrive-HochschuleLuzern/Dateien von Portmann Rahel TA.DCA.2401 - Programmieren/IFC_Datei.ifc','2025-12-03T20:27:54',('Architect'),('Building Designer Office'),'DDS_IFC v3.0','IFC file generated by Graphisoft Archicad 27.0.0 CHE FULL Macintosh version (IFC add-on version: 4030 CHE FULL).','The authorising person');
FILE_SCHEMA(('IFC2X3'));
ENDSEC;
DATA;
#2=IFCOWNERHISTORY(#4,#6,$,.NOCHANGE.,$,$,$,1764786473);
#4=IFCPERSONANDORGANIZATION(#8,#9,$);
#1=IFCPROJECT('344O7vICcwH8qAEnwJDjSU',#2,'Projekt',$,$,$,$,(#3),#5);
#3=IFCGEOMETRICREPRESENTATIONCONTEXT($,'Model',3,1.E-05,#10,#11);
#6=IFCAPPLICATION(#17,'27.0.0','Archicad','IFC add-on version: 4030 CHE FULL');
#7=IFCRELAGGREGATES('0Du7$nzQXCktKlPUTLFSAT',#2,$,$,#1,(#27));
#5=IFCUNITASSIGNMENT((#14,#15,#16,#18,#19,#20,#21,#22,#23,#24,#25,#26,#28,#29));
#8=IFCPERSON($,'Nicht definiert',$,$,$,$,$,$);
#9=IFCORGANIZATION($,'Nicht definiert',$,$,$);
#10=IFCAXIS2PLACEMENT3D(#30,#31,#32);
#11=IFCDIRECTION((0.,1.));
#14=IFCSIUNIT(*,.LENGTHUNIT.,$,.METRE.);
#15=IFCSIUNIT(*,.AREAUNIT.,$,.SQUARE_METRE.);
#17=IFCORGANIZATION('GS','Graphisoft','Graphisoft',$,$);
#16=IFCSIUNIT(*,.VOLUMEUNIT.,$,.CUBIC_METRE.);
#12=IFCGEOMETRICREPRESENTATIONSUBCONTEXT('Body','Model',*,*,*,*,#3,$,.MODEL_VIEW.,$);
#13=IFCGEOMETRICREPRESENTATIONSUBCONTEXT('Axis','Model',*,*,*,*,#3,$,.MODEL_VIEW.,$);
#20=IFCMONETARYUNIT(.CHF.);
#22=IFCSIUNIT(*,.MASSUNIT.,.KILO.,.GRAM.);
#19=IFCCONVERSIONBASEDUNIT(#51,.SOLIDANGLEUNIT.,'SQUAREDEGREE',#56);
#18=IFCCONVERSIONBASEDUNIT(#52,.PLANEANGLEUNIT.,'DEGREE',#55);
#21=IFCCONVERSIONBASEDUNIT(#57,.TIMEUNIT.,'Year',#58);
#23=IFCSIUNIT(*,.THERMODYNAMICTEMPERATUREUNIT.,$,.DEGREE_CELSIUS.);
#25=IFCSIUNIT(*,.ENERGYUNIT.,.MEGA.,.JOULE.);
#24=IFCSIUNIT(*,.LUMINOUSINTENSITYUNIT.,$,.LUMEN.);
#26=IFCDERIVEDUNIT((#59,#60,#61),.THERMALCONDUCTANCEUNIT.,$);
#29=IFCDERIVEDUNIT((#64,#65),.MASSDENSITYUNIT.,$);
#28=IFCDERIVEDUNIT((#62,#63,#66),.SPECIFICHEATCAPACITYUNIT.,$);
#34=IFCSTYLEDREPRESENTATION(#12,$,$,(#68));
#35=IFCSHAPEREPRESENTATION(#12,'Body','CSG',(#70));
#32=IFCDIRECTION((1.,0.,0.));
#31=IFCDIRECTION((0.,0.,1.));
#30=IFCCARTESIANPOINT((0.,0.,0.));
#36=IFCSHAPEREPRESENTATION(#12,'Body','CSG',(#74));
#27=IFCSITE('20FpTZCqJy2vhVJYtjuIce',#2,'Gel\X\E4nde',$,$,#67,$,$,.ELEMENT.,(46,54,0,0),(8,15,0,0),473.,$,$);
#33=IFCSHAPEREPRESENTATION(#12,'Body','CSG',(#79));
#37=IFCSHAPEREPRESENTATION(#12,'Body','CSG',(#76));
#39=IFCSHAPEREPRESENTATION(#12,'Body','CSG',(#83));
#38=IFCSHAPEREPRESENTATION(#12,'Body','SweptSolid',(#80));
#41=IFCSHAPEREPRESENTATION(#12,'Body','CSG',(#86));
#40=IFCSTYLEDREPRESENTATION(#12,$,$,(#87));
#43=IFCSHAPEREPRESENTATION(#13,'Axis','Curve2D',(#90));
#47=IFCSTYLEDREPRESENTATION(#12,$,$,(#93));
#46=IFCSHAPEREPRESENTATION(#13,'Axis','Curve2D',(#92));
#45=IFCSHAPEREPRESENTATION(#13,'Axis','Curve2D',(#91));
#48=IFCSHAPEREPRESENTATION(#12,'Body','CSG',(#95));
#44=IFCSHAPEREPRESENTATION(#13,'Axis','Curve2D',(#98));
#49=IFCSHAPEREPRESENTATION(#12,'Body','CSG',(#99));
#50=IFCSHAPEREPRESENTATION(#12,'Body','SweptSolid',(#101));
#52=IFCDIMENSIONALEXPONENTS(0,0,0,0,0,0,0);
#42=IFCSHAPEREPRESENTATION(#13,'Axis','Curve2D',(#97));
#51=IFCDIMENSIONALEXPONENTS(0,0,0,0,0,0,0);
#53=IFCSHAPEREPRESENTATION(#13,'Axis','Curve2D',(#103));
#56=IFCMEASUREWITHUNIT(IFCPOSITIVELENGTHMEASURE(0.0003046174197867086),#105);
#57=IFCDIMENSIONALEXPONENTS(0,0,1,0,0,0,0);
#55=IFCMEASUREWITHUNIT(IFCPLANEANGLEMEASURE(0.0174532925199433),#104);
#72=IFCPRODUCTDEFINITIONSHAPE($,$,(#35,#43));
#69=IFCMATERIALDEFINITIONREPRESENTATION($,$,(#34),#121);
#70=IFCBOOLEANRESULT(.DIFFERENCE.,#118,#120);
#67=IFCLOCALPLACEMENT($,#117);
#73=IFCRELAGGREGATES('2b_h_mYcGArd6glJG2Fmbt',#2,$,$,#27,(#125));
#68=IFCSTYLEDITEM($,(#116),$);
#66=IFCDERIVEDUNITELEMENT(#115,-1);
#65=IFCDERIVEDUNITELEMENT(#114,-1);
#59=IFCDERIVEDUNITELEMENT(#113,1);
#64=IFCDERIVEDUNITELEMENT(#112,1);
#58=IFCMEASUREWITHUNIT(IFCTIMEMEASURE(31557600.),#106);
#63=IFCDERIVEDUNITELEMENT(#111,-1);
#62=IFCDERIVEDUNITELEMENT(#110,1);
#61=IFCDERIVEDUNITELEMENT(#109,-1);
#60=IFCDERIVEDUNITELEMENT(#108,-1);
#54=IFCSHAPEREPRESENTATION(#13,'Axis','Curve2D',(#107));
#74=IFCBOOLEANRESULT(.DIFFERENCE.,#123,#124);
#71=IFCPRESENTATIONLAYERASSIGNMENT('010 Aussenw\X\E4nde',$,(#33,#42,#35,#43,#36,#44,#37,#45,#41,#46,#48,#53,#49,#54),$);
#79=IFCBOOLEANRESULT(.DIFFERENCE.,#130,#131);
#76=IFCBOOLEANRESULT(.DIFFERENCE.,#127,#129);
#81=IFCPRODUCTDEFINITIONSHAPE($,$,(#33,#42));
#78=IFCRELDEFINESBYPROPERTIES('2Hm9JvZjohDNSD2kdxZI3b',#2,$,$,(#27),#128);
#77=IFCPRODUCTDEFINITIONSHAPE($,$,(#37,#45));
#80=IFCEXTRUDEDAREASOLID(#132,#133,#134,0.35);
#75=IFCPRODUCTDEFINITIONSHAPE($,$,(#36,#44));
#84=IFCPRODUCTDEFINITIONSHAPE($,$,(#39));
#83=IFCBOOLEANRESULT(.DIFFERENCE.,#138,#139);
#82=IFCPRESENTATIONLAYERASSIGNMENT('035 Decken',$,(#38,#39,#50),$);
#86=IFCBOOLEANRESULT(.DIFFERENCE.,#140,#141);
#87=IFCSTYLEDITEM($,(#142),$);
#88=IFCPRODUCTDEFINITIONSHAPE($,$,(#41,#46));
#85=IFCPRODUCTDEFINITIONSHAPE($,$,(#38));
#90=IFCPOLYLINE((#145,#146));
#89=IFCMATERIALDEFINITIONREPRESENTATION($,$,(#40),#147);
#93=IFCSTYLEDITEM($,(#150),$);
#91=IFCPOLYLINE((#148,#149));
#94=IFCMATERIALDEFINITIONREPRESENTATION($,$,(#47),#151);
#92=IFCPOLYLINE((#152,#153));
#95=IFCBOOLEANRESULT(.DIFFERENCE.,#154,#155);
#97=IFCPOLYLINE((#156,#157));
#99=IFCBOOLEANRESULT(.DIFFERENCE.,#159,#160);
#96=IFCPRODUCTDEFINITIONSHAPE($,$,(#48,#53));
#98=IFCPOLYLINE((#163,#164));
#103=IFCPOLYLINE((#166,#167));
#101=IFCEXTRUDEDAREASOLID(#161,#162,#165,0.35);
#104=IFCSIUNIT(*,.PLANEANGLEUNIT.,$,.RADIAN.);
#102=IFCPRODUCTDEFINITIONSHAPE($,$,(#50));
#106=IFCSIUNIT(*,.TIMEUNIT.,$,.SECOND.);
#105=IFCSIUNIT(*,.SOLIDANGLEUNIT.,$,.STERADIAN.);
#108=IFCSIUNIT(*,.LENGTHUNIT.,$,.METRE.);
#100=IFCPRODUCTDEFINITIONSHAPE($,$,(#49,#54));
#113=IFCSIUNIT(*,.POWERUNIT.,$,.WATT.);
#111=IFCSIUNIT(*,.MASSUNIT.,.KILO.,.GRAM.);
#110=IFCSIUNIT(*,.ENERGYUNIT.,$,.JOULE.);
#109=IFCSIUNIT(*,.THERMODYNAMICTEMPERATUREUNIT.,$,.KELVIN.);
#107=IFCPOLYLINE((#170,#171));
#112=IFCSIUNIT(*,.MASSUNIT.,.KILO.,.GRAM.);
#114=IFCSIUNIT(*,.VOLUMEUNIT.,$,.CUBIC_METRE.);
#115=IFCSIUNIT(*,.THERMODYNAMICTEMPERATUREUNIT.,$,.KELVIN.);
#116=IFCPRESENTATIONSTYLEASSIGNMENT((#175));
#117=IFCAXIS2PLACEMENT3D(#172,#173,#174);
#118=IFCEXTRUDEDAREASOLID(#176,#177,#178,2.85);
#120=IFCFACETEDBREP(#179);
#121=IFCMATERIAL('Beton, Stahlbeton');
#122=IFCWALL('2UksnIZWTFkxGxtYdgQF34',#2,'Wand-003',$,$,#181,#72,'9EBB6C52-8E07-4FBB-B43B-DE29EA68F0C4');
#119=IFCLOCALPLACEMENT(#67,#185);
#124=IFCFACETEDBREP(#196);
#123=IFCEXTRUDEDAREASOLID(#189,#190,#193,2.85);
#125=IFCBUILDING('00tMo7QcxqWdIGvc4sMN2A',#2,'Geb\X\E4ude',$,$,#119,$,$,.ELEMENT.,$,$,$);
#127=IFCEXTRUDEDAREASOLID(#199,#200,#201,2.85);
#129=IFCFACETEDBREP(#208);
#128=IFCELEMENTQUANTITY('2GNZepdf73fvGc$0W6rozj',#2,'BaseQuantities',$,'Archicad BIM Base Quantities',(#204,#206));
#130=IFCEXTRUDEDAREASOLID(#209,#210,#211,2.85);
#131=IFCFACETEDBREP(#213);
#132=IFCARBITRARYCLOSEDPROFILEDEF(.AREA.,'',#214);
#134=IFCDIRECTION((0.,0.,1.));
#133=IFCAXIS2PLACEMENT3D(#215,#216,#217);
#139=IFCFACETEDBREP(#230);
#136=IFCWALL('0iPZZ9yyH5MAeEAgQW4N2X',#2,'Wand-004',$,$,#222,#75,'2C6638C9-F3C4-4558-AA0E-2AA6A01170A1');
#126=IFCWALL('3ycx28P6v0owZ4hKD1EDFQ',#2,'Wand-005',$,$,#203,#77,'FC9BB088-646E-40CB-A8C4-AD434138D3DA');
#135=IFCWALL('2UkJMf_UfBvfwFklVLgZpA',#2,'Wand-006',$,$,#218,#81,'9EB935A9-F9EA-4BE6-9E8F-BAF7D5AA3CCA');
#141=IFCFACETEDBREP(#236);
#138=IFCEXTRUDEDAREASOLID(#232,#233,#234,0.06);
#140=IFCEXTRUDEDAREASOLID(#237,#238,#239,2.85);
#137=IFCSLAB('2mqYs5Rk57vQocGCl4Hq5t',#2,'Decke-001',$,$,#231,#84,'B0D22D85-6EE1-47E5-ACA6-40CBC4474177',.NOTDEFINED.);
#142=IFCPRESENTATIONSTYLEASSIGNMENT((#247));
#145=IFCCARTESIANPOINT((0.,0.));
#144=IFCSLAB('1y9cSJP8j1kR7kl2QUsa1L',#2,'Decke-001',$,$,#245,#85,'7C266713-648B-41B9-B1EE-BC269EDA4055',.NOTDEFINED.);
#149=IFCCARTESIANPOINT((14.,0.));
#148=IFCCARTESIANPOINT((0.,0.));
#147=IFCMATERIAL('Unterlagsboden Anhydrit 60mm');
#150=IFCPRESENTATIONSTYLEASSIGNMENT((#252));
#146=IFCCARTESIANPOINT((14.,0.));
#152=IFCCARTESIANPOINT((0.,0.));
#151=IFCMATERIAL('MW, Backstein');
#143=IFCWALL('1vDZmD4CrlIBu7_h6Xygko',#2,'Wand-007',$,$,#251,#88,'79363C0D-10CD-6F48-BE07-FAB1A1F2ABB2');
#153=IFCCARTESIANPOINT((8.,0.));
#155=IFCFACETEDBREP(#258);
#156=IFCCARTESIANPOINT((0.,0.));
#157=IFCCARTESIANPOINT((8.,0.));
#154=IFCEXTRUDEDAREASOLID(#259,#261,#262,2.85);
#159=IFCEXTRUDEDAREASOLID(#263,#264,#265,2.85);
#160=IFCFACETEDBREP(#268);
#161=IFCARBITRARYCLOSEDPROFILEDEF(.AREA.,'',#269);
#164=IFCCARTESIANPOINT((8.,0.));
#162=IFCAXIS2PLACEMENT3D(#273,#274,#275);
#163=IFCCARTESIANPOINT((0.,0.));
#158=IFCWALL('0FikRpswvXJfELj5HDTwQQ',#2,'Wand-008',$,$,#260,#96,'0FB2E6F3-DBAE-614E-9395-B4544D77A69A');
#165=IFCDIRECTION((0.,0.,1.));
#167=IFCCARTESIANPOINT((7.,0.));
#166=IFCCARTESIANPOINT((0.,0.));
#170=IFCCARTESIANPOINT((0.,0.));
#171=IFCCARTESIANPOINT((4.,0.));
#172=IFCCARTESIANPOINT((0.,0.,0.));
#173=IFCDIRECTION((0.,0.,1.));
#169=IFCWALL('3gjsKx8kmAHvSXlqM4zo_a',#2,'Wand-009',$,$,#276,#100,'EAB7653B-22EC-0A47-9721-BF4584F72FA4');
#174=IFCDIRECTION((1.,0.,0.));
#176=IFCARBITRARYCLOSEDPROFILEDEF(.AREA.,'',#280);
#168=IFCSLAB('2_s_yuupGqIAPa6aIGRX8z',#2,'Decke-001',$,$,#279,#102,'BEDBEF38-E334-3448-A664-1A44906E123D',.NOTDEFINED.);
#175=IFCSURFACESTYLE('Beton gestrichen, dunkelgrau',.BOTH.,(#284));
#178=IFCDIRECTION((0.,0.,1.));
#181=IFCLOCALPLACEMENT(#194,#289);
#180=IFCSTYLEDITEM(#118,(#288),$);
#177=IFCAXIS2PLACEMENT3D(#281,#287,#290);
#183=IFCRELDEFINESBYPROPERTIES('2dDTQFtNEclIXyYrjdZ7zr',#2,$,$,(#122),#297);
#179=IFCCLOSEDSHELL((#291,#292,#293,#294,#295,#296));
#184=IFCRELDEFINESBYPROPERTIES('2rbvaaC7RpK5cSmtU6KnZ0',#2,$,$,(#122),#298);
#185=IFCAXIS2PLACEMENT3D(#299,#300,#301);
#182=IFCRELASSOCIATESMATERIAL('0bSZXD9DT_vjA67cMrKcXG',#2,$,$,(#135,#122,#136,#126),#121);
#187=IFCRELCONNECTSPATHELEMENTS('1hvqUMLb3g4oKSig8YATSP',#2,$,$,$,#122,#135,(),(),.ATEND.,.ATSTART.);
#188=IFCRELCONNECTSPATHELEMENTS('2Uwhc$W3$1eCYFiALjjhhd',#2,$,$,$,#122,#143,(),(),.ATEND.,.ATPATH.);
#189=IFCARBITRARYCLOSEDPROFILEDEF(.AREA.,'',#302);
#190=IFCAXIS2PLACEMENT3D(#303,#304,#305);
#191=IFCRELCONNECTSPATHELEMENTS('0lFt8s99S8HOxqu1X9rfhM',#2,$,$,$,#136,#122,(),(),.ATEND.,.ATSTART.);
#186=IFCRELDEFINESBYTYPE('3VxWGhwSZj3qPdIqreuCCm',#2,$,$,(#135,#122,#136,#126),#306);
#193=IFCDIRECTION((0.,0.,1.));
#195=IFCLOCALPLACEMENT(#119,#308);
#192=IFCRELCONTAINEDINSPATIALSTRUCTURE('1uCHVhrB_en3PDhuR3iNCM',#2,$,$,(#135,#122,#136,#126,#144,#137,#143,#158,#169),#310);
#197=IFCSTYLEDITEM(#123,(#288),$);
#198=IFCRELAGGREGATES('118jwqMnuwK1xuf97w7fU5',#2,$,$,#125,(#310,#309));
#196=IFCCLOSEDSHELL((#311,#312,#313,#314,#315,#316,#317,#318));
#200=IFCAXIS2PLACEMENT3D(#320,#321,#322);
#199=IFCARBITRARYCLOSEDPROFILEDEF(.AREA.,'',#319);
#194=IFCLOCALPLACEMENT(#119,#307);
#202=IFCRELDEFINESBYPROPERTIES('0L87OdSD3DqSTjSRlAciZL',#2,$,$,(#125),#323);
#201=IFCDIRECTION((0.,0.,1.));
#205=IFCRELDEFINESBYPROPERTIES('0hbim33J05sTTLOn_TnhlV',#2,$,$,(#126),#324);
#203=IFCLOCALPLACEMENT(#194,#325);
#204=IFCQUANTITYLENGTH('GrossPerimeter',$,$,0.);
#206=IFCQUANTITYAREA('GrossArea',$,$,0.);
#209=IFCARBITRARYCLOSEDPROFILEDEF(.AREA.,'',#327);
#210=IFCAXIS2PLACEMENT3D(#328,#329,#330);
#207=IFCSTYLEDITEM(#127,(#288),$);
#211=IFCDIRECTION((0.,0.,1.));
#212=IFCSTYLEDITEM(#130,(#288),$);
#208=IFCCLOSEDSHELL((#326,#332,#333,#334,#335,#336,#339,#340));
#215=IFCCARTESIANPOINT((0.,0.,-0.35));
#214=IFCPOLYLINE((#341,#347,#349,#350,#341));
#213=IFCCLOSEDSHELL((#331,#337,#338,#342,#343,#344,#345,#346,#348,#351));
#216=IFCDIRECTION((0.,0.,1.));
#217=IFCDIRECTION((1.,0.,0.));
#218=IFCLOCALPLACEMENT(#194,#352);
#221=IFCRELCONNECTSPATHELEMENTS('2n0V24Qd0n44r8pFlVpnNB',#2,$,$,$,#126,#135,(),(),.ATSTART.,.ATEND.);
#220=IFCRELCONNECTSPATHELEMENTS('1gQiQQZMTkQPSlXAu1bhWp',#2,$,$,$,#126,#136,(),(),.ATEND.,.ATSTART.);
#219=IFCRELDEFINESBYPROPERTIES('1S0Xn$YaTfqsxqsp65AmTm',#2,$,$,(#126),#353);
#222=IFCLOCALPLACEMENT(#194,#354);
#225=IFCRELDEFINESBYPROPERTIES('089CbeHStqT4fBt4OdCJ9A',#2,$,$,(#135),#355);
#223=IFCRELCONNECTSPATHELEMENTS('307M5kMcx6Faa6eSa7FvPj',#2,$,$,$,#126,#143,(),(),.ATSTART.,.ATPATH.);
#227=IFCRELDEFINESBYPROPERTIES('3GYudMu4_y81kx$sQ$IORE',#2,$,$,(#136),#357);
#228=IFCRELDEFINESBYPROPERTIES('12HurE4yvXiBrx01CEUoHQ',#2,$,$,(#136),#358);
#224=IFCRELDEFINESBYPROPERTIES('3pf2sqYIVkw_qDFdXl0b05',#2,$,$,(#135),#356);
#226=IFCRELCONNECTSPATHELEMENTS('2vqLxJSCdPVCLucxH7Nkb$',#2,$,$,$,#126,#169,(),(),.ATEND.,.ATPATH.);
#229=IFCRELCONNECTSPATHELEMENTS('3TcoWFWTxlDVUBIo$87pE2',#2,$,$,$,#136,#158,(),(),.ATEND.,.ATPATH.);
#231=IFCLOCALPLACEMENT(#194,#367);
#232=IFCARBITRARYCLOSEDPROFILEDEF(.AREA.,'',#380);
#234=IFCDIRECTION((0.,0.,1.));
#230=IFCCLOSEDSHELL((#359,#360,#361,#362,#363,#364,#365,#366,#368,#369,#370,#371,#372,#373,#374,#375,#376,#377,#378,#379,#383,#384));
#235=IFCSTYLEDITEM(#138,(#385),$);
#233=IFCAXIS2PLACEMENT3D(#381,#382,#392);
#238=IFCAXIS2PLACEMENT3D(#393,#394,#395);
#239=IFCDIRECTION((0.,0.,1.));
#240=IFCSTYLEDITEM(#140,(#288),$);
#247=IFCSURFACESTYLE('Farbe, hellgrau',.BOTH.,(#406));
#246=IFCRELASSOCIATESMATERIAL('2n2ZwGDYYxj4DztvcrIjMw',#2,$,$,(#144),#405);
#244=IFCRELDEFINESBYTYPE('1tpILLelfq_UtqJbrFwpTS',#2,$,$,(#137),#403);
#245=IFCLOCALPLACEMENT(#194,#404);
#242=IFCRELDEFINESBYPROPERTIES('1dJz$xDfWAGJDkZvxmI1iA',#2,$,$,(#137),#402);
#236=IFCCLOSEDSHELL((#386,#387,#388,#389,#390,#391,#396,#397,#398,#401));
#237=IFCARBITRARYCLOSEDPROFILEDEF(.AREA.,'',#400);
#241=IFCRELASSOCIATESMATERIAL('2UmV$nsrOEzZyOym2fO65s',#2,$,$,(#137),#399);
#252=IFCSURFACESTYLE('MW Ziegel, rot, NF',.BOTH.,(#410));
#248=IFCRELDEFINESBYPROPERTIES('2yjLNpRnZZs5DSEwjFJeRz',#2,$,$,(#144),#407);
#249=IFCRELDEFINESBYPROPERTIES('0pk6GyjrNaM3niB2ocOmAY',#2,$,$,(#144),#409);
#243=IFCRELDEFINESBYPROPERTIES('1iQlcKL5B4xSzBSy_PPoID',#2,$,$,(#137),#408);
#257=IFCRELCONNECTSPATHELEMENTS('23B9sg9QFycmSO5gSdUrZJ',#2,$,$,$,#143,#158,(),(),.ATSTART.,.ATPATH.);
#251=IFCLOCALPLACEMENT(#194,#414);
#256=IFCRELDEFINESBYTYPE('1prE5RB8ifwSxoej_OxOD$',#2,$,$,(#143,#158,#169),#415);
#255=IFCRELDEFINESBYPROPERTIES('1NOZ1ct_ZxvtUSqwgeWhTe',#2,$,$,(#143),#413);
#254=IFCRELDEFINESBYPROPERTIES('3pulfA5UOk$sq3tN5tRG4l',#2,$,$,(#143),#412);
#250=IFCRELDEFINESBYTYPE('1lXWsnf4yoKGCLxIDYZ_$l',#2,$,$,(#144,#168),#411);
#253=IFCRELASSOCIATESMATERIAL('2rVH$oAdq_bPSFt_GyZsBJ',#2,$,$,(#143,#158,#169),#151);
#261=IFCAXIS2PLACEMENT3D(#422,#423,#429);
#258=IFCCLOSEDSHELL((#416,#417,#418,#419,#420,#424,#425,#426,#427,#428));
#259=IFCARBITRARYCLOSEDPROFILEDEF(.AREA.,'',#421);
#262=IFCDIRECTION((0.,0.,1.));
#266=IFCSTYLEDITEM(#159,(#288),$);
#265=IFCDIRECTION((0.,0.,1.));
#263=IFCARBITRARYCLOSEDPROFILEDEF(.AREA.,'',#430);
#260=IFCLOCALPLACEMENT(#194,#431);
#267=IFCSTYLEDITEM(#154,(#288),$);
#269=IFCPOLYLINE((#435,#436,#437,#438,#435));
#268=IFCCLOSEDSHELL((#432,#433,#434,#439,#440,#442,#443,#444,#445,#446));
#273=IFCCARTESIANPOINT((0.,0.,-0.35));
#272=IFCRELCONNECTSPATHELEMENTS('0mc3EEyJT1RzPu1KEITdfG',#2,$,$,$,#158,#169,(),(),.ATSTART.,.ATPATH.);
#270=IFCRELDEFINESBYPROPERTIES('22Vz7KvFfRRupXUQc33orP',#2,$,$,(#158),#449);
#264=IFCAXIS2PLACEMENT3D(#441,#447,#448);
#271=IFCRELDEFINESBYPROPERTIES('2Bp8fILKmUi1R4_zqqg4XU',#2,$,$,(#158),#450);
#275=IFCDIRECTION((1.,0.,0.));
#274=IFCDIRECTION((0.,0.,1.));
#276=IFCLOCALPLACEMENT(#194,#451);
#278=IFCRELDEFINESBYPROPERTIES('3jPCM_zRJxJmkVrPKfBXF2',#2,$,$,(#169),#452);
#287=IFCDIRECTION((0.,0.,1.));
#284=IFCSURFACESTYLERENDERING(#460,0.,IFCNORMALISEDRATIOMEASURE(1.),$,$,$,IFCNORMALISEDRATIOMEASURE(0.27),$,.NOTDEFINED.);
#285=IFCRELDEFINESBYPROPERTIES('2iD1VEUAbiFoHh$XnvBE2Y',#2,$,$,(#168),#462);
#282=IFCRELASSOCIATESMATERIAL('2dYBOCPUTUGUQ_vFJZs55o',#2,$,$,(#168),#461);
#283=IFCRELDEFINESBYPROPERTIES('0EPB2M4VN6fBQLSFzT3rFn',#2,$,$,(#168),#459);
#280=IFCPOLYLINE((#454,#456,#457,#458,#454));
#279=IFCLOCALPLACEMENT(#195,#455);
#281=IFCCARTESIANPOINT((0.,0.,0.));
#277=IFCRELDEFINESBYPROPERTIES('3RFJkzWjtyBVVLaaIoaaJE',#2,$,$,(#169),#453);
#288=IFCPRESENTATIONSTYLEASSIGNMENT((#463));
#290=IFCDIRECTION((1.,0.,0.));
#292=IFCFACE((#465));
#291=IFCFACE((#464));
#286=IFCRELCONTAINEDINSPATIALSTRUCTURE('3xJw9fTrf8akHGExeZlKHJ',#2,$,$,(#168),#309);
#289=IFCAXIS2PLACEMENT3D(#466,#467,#468);
#296=IFCFACE((#471));
#294=IFCFACE((#469));
#295=IFCFACE((#470));
#293=IFCFACE((#472));
#305=IFCDIRECTION((1.,0.,0.));
#304=IFCDIRECTION((0.,0.,1.));
#303=IFCCARTESIANPOINT((0.,0.,0.));
#302=IFCPOLYLINE((#474,#475,#476,#478,#474));
#297=IFCPROPERTYSET('34zpl3AtQN9qc3Goe9uw_H',#2,'AC_Pset_RenovationAndPhasing',$,(#477));
#301=IFCDIRECTION((1.,0.,0.));
#300=IFCDIRECTION((0.,0.,1.));
#299=IFCCARTESIANPOINT((0.,0.,0.));
#298=IFCELEMENTQUANTITY('3N0uHyhaJXn3_8Jb_jMI3Y',#2,'BaseQuantities',$,'Archicad BIM Base Quantities',(#473,#479,#480,#481,#482,#483,#484,#485,#486));
#308=IFCAXIS2PLACEMENT3D(#490,#491,#492);
#307=IFCAXIS2PLACEMENT3D(#487,#488,#489);
#318=IFCFACE((#506));
#322=IFCDIRECTION((1.,0.,0.));
#321=IFCDIRECTION((0.,0.,1.));
#325=IFCAXIS2PLACEMENT3D(#507,#508,#509);
#316=IFCFACE((#505));
#320=IFCCARTESIANPOINT((0.,0.,0.));
#319=IFCPOLYLINE((#501,#502,#503,#504,#501));
#317=IFCFACE((#500));
#315=IFCFACE((#499));
#314=IFCFACE((#498));
#309=IFCBUILDINGSTOREY('3NscPmsxv7yOs3PvwPDAMH',#2,'OG',$,$,#195,$,$,.ELEMENT.,2.85);
#313=IFCFACE((#497));
#312=IFCFACE((#496));
#311=IFCFACE((#494));
#310=IFCBUILDINGSTOREY('3eYt9TfVT42ezAX4OpSOsQ',#2,'EG',$,$,#194,$,$,.ELEMENT.,0.);
#306=IFCWALLTYPE('21HwKBvQQdHLGpHjQ9SPuv',#2,'Beton, Stahlbeton 330',$,$,$,$,'8147A50B-E5A6-A745-5433-46D689719E39',$,.NOTDEFINED.);
#324=IFCPROPERTYSET('3ypqKOHR6GatSqPwAhwniK',#2,'AC_Pset_RenovationAndPhasing',$,(#511));
#328=IFCCARTESIANPOINT((0.,0.,0.));
#323=IFCELEMENTQUANTITY('1kQMlmT0rD35a9E43iKTas',#2,'BaseQuantities',$,'Archicad BIM Base Quantities',(#510));
#327=IFCPOLYLINE((#512,#513,#514,#515,#512));
#329=IFCDIRECTION((0.,0.,1.));
#330=IFCDIRECTION((1.,0.,0.));
#326=IFCFACE((#516));
#335=IFCFACE((#520));
#337=IFCFACE((#522));
#334=IFCFACE((#519));
#338=IFCFACE((#523));
#331=IFCFACE((#518));
#332=IFCFACE((#517));
#340=IFCFACE((#525));
#336=IFCFACE((#521));
#341=IFCCARTESIANPOINT((0.,0.));
#339=IFCFACE((#524));
#333=IFCFACE((#526));
#344=IFCFACE((#527));
#342=IFCFACE((#529));
#343=IFCFACE((#528));
#346=IFCFACE((#531));
#345=IFCFACE((#530));
#347=IFCCARTESIANPOINT((14.,0.));
#350=IFCCARTESIANPOINT((0.,8.));
#351=IFCFACE((#532));
#354=IFCAXIS2PLACEMENT3D(#536,#537,#538);
#349=IFCCARTESIANPOINT((14.,8.));
#352=IFCAXIS2PLACEMENT3D(#533,#534,#535);
#348=IFCFACE((#539));
#353=IFCELEMENTQUANTITY('2$af5FfjF$QeKf9g8cbSoF',#2,'BaseQuantities',$,'Archicad BIM Base Quantities',(#543,#544,#545,#546,#547,#549,#550,#551,#552));
#356=IFCPROPERTYSET('2caKlJJpHvdGaK7s8W3x$h',#2,'AC_Pset_RenovationAndPhasing',$,(#554));
#357=IFCPROPERTYSET('11xefUDa5zOzWUh3ADU_fY',#2,'AC_Pset_RenovationAndPhasing',$,(#556));
#355=IFCELEMENTQUANTITY('0IUpxs2Ee4tfRGX$cGcp5_',#2,'BaseQuantities',$,'Archicad BIM Base Quantities',(#540,#541,#542,#548,#553,#555,#557,#558,#559));
#359=IFCFACE((#562,#564,#566,#568,#569));
#358=IFCELEMENTQUANTITY('2tACoz8qkUV8kdbFpVf0B8',#2,'BaseQuantities',$,'Archicad BIM Base Quantities',(#560,#561,#563,#565,#567,#570,#571,#572,#573));
#361=IFCFACE((#574));
#363=IFCFACE((#576));
#362=IFCFACE((#575));
#364=IFCFACE((#577));
#365=IFCFACE((#578));
#368=IFCFACE((#583));
#366=IFCFACE((#584));
#367=IFCAXIS2PLACEMENT3D(#580,#581,#582);
#370=IFCFACE((#585));
#360=IFCFACE((#579));
#371=IFCFACE((#586));
#373=IFCFACE((#588));
#372=IFCFACE((#587));
#369=IFCFACE((#597));
#377=IFCFACE((#593));
#378=IFCFACE((#592));
#374=IFCFACE((#589));
#376=IFCFACE((#591));
#375=IFCFACE((#590));
#380=IFCPOLYLINE((#594,#595,#596,#598,#594));
#379=IFCFACE((#599));
#381=IFCCARTESIANPOINT((0.,0.,-0.06));
#383=IFCFACE((#600));
#382=IFCDIRECTION((0.,0.,1.));
#385=IFCPRESENTATIONSTYLEASSIGNMENT((#606));
#384=IFCFACE((#601,#602,#603,#604,#605));
#387=IFCFACE((#607));
#390=IFCFACE((#609));
#386=IFCFACE((#608));
#391=IFCFACE((#610));
#393=IFCCARTESIANPOINT((0.,0.,0.));
#389=IFCFACE((#611));
#398=IFCFACE((#614));
#397=IFCFACE((#613));
#392=IFCDIRECTION((1.,0.,0.));
#395=IFCDIRECTION((1.,0.,0.));
#394=IFCDIRECTION((0.,0.,1.));
#388=IFCFACE((#612));
#401=IFCFACE((#618));
#399=IFCMATERIALLAYERSETUSAGE(#615,.AXIS3.,.NEGATIVE.,0.06);
#400=IFCPOLYLINE((#616,#617,#619,#620,#616));
#396=IFCFACE((#621));
#402=IFCPROPERTYSET('3N7bwjZaW7x2W8G0MUaoEB',#2,'AC_Pset_RenovationAndPhasing',$,(#622));
#404=IFCAXIS2PLACEMENT3D(#623,#624,#625);
#403=IFCSLABTYPE('1TeEpoi6fy31hpOsqUL5lk',#2,'Unterlagsboden Anhydrit 60mm 60',$,$,$,$,'5DA0ECF2-B06A-7C0C-1AF3-636D1E545BEE',$,.NOTDEFINED.);
#405=IFCMATERIALLAYERSETUSAGE(#626,.AXIS3.,.NEGATIVE.,0.35);
#407=IFCPROPERTYSET('26n$h_MuiefRc6AGj_dkq6',#2,'AC_Pset_RenovationAndPhasing',$,(#627));
#406=IFCSURFACESTYLERENDERING(#628,0.,IFCNORMALISEDRATIOMEASURE(0.41),$,$,$,IFCNORMALISEDRATIOMEASURE(0.1),$,.NOTDEFINED.);
#408=IFCELEMENTQUANTITY('0kyCwmZnYyPHxdFUu$75rj',#2,'BaseQuantities',$,'Archicad BIM Base Quantities',(#630,#631,#632,#633,#634,#635));
#411=IFCSLABTYPE('0_BEgkmGIblRtvbjd$aLUC',#2,'Beton, Stahlbeton 350',$,$,$,$,'3E2CEAAE-C104-A5BD-BDF9-96D9FF91578C',$,.NOTDEFINED.);
#410=IFCSURFACESTYLERENDERING(#629,0.,IFCNORMALISEDRATIOMEASURE(0.7),$,$,$,IFCNORMALISEDRATIOMEASURE(0.),$,.NOTDEFINED.);
#409=IFCELEMENTQUANTITY('2KVpgzrBURLZQ7UM0SU$wo',#2,'BaseQuantities',$,'Archicad BIM Base Quantities',(#636,#637,#638,#639,#640,#641));
#414=IFCAXIS2PLACEMENT3D(#642,#643,#644);
#412=IFCPROPERTYSET('2lRsk8_17xELEekKwNDVyO',#2,'AC_Pset_RenovationAndPhasing',$,(#647));
#416=IFCFACE((#648));
#419=IFCFACE((#651));
#418=IFCFACE((#650));
#417=IFCFACE((#649));
#420=IFCFACE((#659));
#415=IFCWALLTYPE('2AlR7jTk4roS9yCbSfWjwG',#2,'MW, Backstein 150',$,$,$,$,'8ABDB1ED-76E1-35C9-C27C-32572982DE90',$,.NOTDEFINED.);
#413=IFCELEMENTQUANTITY('1HEIJ4qkLJ0vcS_2B9Ny07',#2,'BaseQuantities',$,'Archicad BIM Base Quantities',(#645,#646,#652,#653,#654,#655,#656,#657,#658));
#437=IFCCARTESIANPOINT((14.,8.));
#436=IFCCARTESIANPOINT((14.,0.));
#435=IFCCARTESIANPOINT((0.,0.));
#433=IFCFACE((#677));
#438=IFCCARTESIANPOINT((0.,8.));
#432=IFCFACE((#676));
#431=IFCAXIS2PLACEMENT3D(#673,#674,#675);
#429=IFCDIRECTION((1.,0.,0.));
#430=IFCPOLYLINE((#669,#670,#671,#672,#669));
#428=IFCFACE((#668));
#427=IFCFACE((#664));
#426=IFCFACE((#663));
#425=IFCFACE((#662));
#424=IFCFACE((#661));
#423=IFCDIRECTION((0.,0.,1.));
#422=IFCCARTESIANPOINT((0.,0.,0.));
#434=IFCFACE((#678));
#439=IFCFACE((#679));
#440=IFCFACE((#680));
#444=IFCFACE((#683));
#443=IFCFACE((#682));
#442=IFCFACE((#681));
#421=IFCPOLYLINE((#660,#665,#666,#667,#660));
#441=IFCCARTESIANPOINT((0.,0.,0.));
#445=IFCFACE((#684));
#446=IFCFACE((#685));
#447=IFCDIRECTION((0.,0.,1.));
#449=IFCPROPERTYSET('20vOzciea9MmwPc0RK30Fb',#2,'AC_Pset_RenovationAndPhasing',$,(#686));
#448=IFCDIRECTION((1.,0.,0.));
#451=IFCAXIS2PLACEMENT3D(#687,#692,#695);
#450=IFCELEMENTQUANTITY('3hYE1MIw_w5rdWZo063Y3o',#2,'BaseQuantities',$,'Archicad BIM Base Quantities',(#688,#689,#690,#691,#693,#694,#696,#697,#698));
#454=IFCCARTESIANPOINT((0.,0.));
#452=IFCELEMENTQUANTITY('0QbaePYJ3h3Xvd$DQGs0zw',#2,'BaseQuantities',$,'Archicad BIM Base Quantities',(#699,#700,#701,#702,#703,#704,#705,#706,#707));
#456=IFCCARTESIANPOINT((14.,0.));
#457=IFCCARTESIANPOINT((14.,0.330000005960464));
#460=IFCCOLOURRGB($,0.4980392156862745,0.4980392156862745,0.4980392156862745);
#453=IFCPROPERTYSET('20BI$Cc54Alof1jKbY9Y9s',#2,'AC_Pset_RenovationAndPhasing',$,(#708));
#458=IFCCARTESIANPOINT((0.,0.330000005960464));
#459=IFCPROPERTYSET('1gETa41Ho8mOJ0Ou3_f920',#2,'AC_Pset_RenovationAndPhasing',$,(#710));
#461=IFCMATERIALLAYERSETUSAGE(#626,.AXIS3.,.NEGATIVE.,0.35);
#455=IFCAXIS2PLACEMENT3D(#709,#711,#712);
#463=IFCSURFACESTYLE('Verputz, glatt, weiss',.BOTH.,(#713));
#464=IFCFACEOUTERBOUND(#715,.T.);
#467=IFCDIRECTION((0.,0.,1.));
#466=IFCCARTESIANPOINT((0.,0.,0.));
#462=IFCELEMENTQUANTITY('1_i3EDtNUWp_wdKD7Pe20e',#2,'BaseQuantities',$,'Archicad BIM Base Quantities',(#714,#716,#717,#718,#719,#720));
#471=IFCFACEOUTERBOUND(#723,.T.);
#468=IFCDIRECTION((1.,0.,0.));
#469=IFCFACEOUTERBOUND(#722,.T.);
#465=IFCFACEOUTERBOUND(#721,.T.);
#478=IFCCARTESIANPOINT((0.,0.3300000059604642));
#476=IFCCARTESIANPOINT((8.,0.3300000059604642));
#475=IFCCARTESIANPOINT((8.,0.));
#474=IFCCARTESIANPOINT((0.,0.));
#473=IFCQUANTITYLENGTH('Length',$,$,13.66999999403954);
#472=IFCFACEOUTERBOUND(#724,.T.);
#479=IFCQUANTITYLENGTH('Height',$,$,2.5);
#477=IFCPROPERTYSINGLEVALUE('Renovation Status',$,IFCLABEL('Existing'),$);
#480=IFCQUANTITYLENGTH('Width',$,$,0.330000005960464);
#481=IFCQUANTITYAREA('GrossFootprintArea',$,$,4.620000083446499);
#483=IFCQUANTITYAREA('GrossSideArea',$,$,35.);
#484=IFCQUANTITYAREA('NetSideArea',$,$,35.);
#485=IFCQUANTITYVOLUME('GrossVolume',$,$,11.55000020861626);
#470=IFCFACEOUTERBOUND(#725,.T.);
#482=IFCQUANTITYAREA('NetFootprintArea',$,$,4.620000083446499);
#487=IFCCARTESIANPOINT((0.,0.,0.));
#486=IFCQUANTITYVOLUME('NetVolume',$,$,11.55000020861626);
#489=IFCDIRECTION((1.,0.,0.));
#488=IFCDIRECTION((0.,0.,1.));
#491=IFCDIRECTION((0.,0.,1.));
#494=IFCFACEOUTERBOUND(#726,.T.);
#490=IFCCARTESIANPOINT((0.,0.,2.85));
#492=IFCDIRECTION((1.,0.,0.));
#496=IFCFACEOUTERBOUND(#727,.T.);
#497=IFCFACEOUTERBOUND(#728,.T.);
#493=IFCRELDEFINESBYPROPERTIES('1v5QUUvxTIWBT2FcZm16LJ',#2,$,$,(#310),#729);
#501=IFCCARTESIANPOINT((0.,0.));
#502=IFCCARTESIANPOINT((14.,0.));
#495=IFCRELDEFINESBYPROPERTIES('0h9keZ4AQkgqXwTau8hStG',#2,$,$,(#309),#731);
#499=IFCFACEOUTERBOUND(#732,.T.);
#498=IFCFACEOUTERBOUND(#730,.T.);
#513=IFCCARTESIANPOINT((8.,0.));
#515=IFCCARTESIANPOINT((0.,0.330000005960464));
#500=IFCFACEOUTERBOUND(#735,.T.);
#512=IFCCARTESIANPOINT((0.,0.));
#511=IFCPROPERTYSINGLEVALUE('Renovation Status',$,IFCLABEL('Existing'),$);
#510=IFCQUANTITYAREA('GrossFloorArea',$,$,0.);
#504=IFCCARTESIANPOINT((0.,0.3300000059604642));
#509=IFCDIRECTION((-1.,0.,0.));
#508=IFCDIRECTION((0.,0.,1.));
#507=IFCCARTESIANPOINT((14.,8.,0.));
#506=IFCFACEOUTERBOUND(#734,.T.);
#505=IFCFACEOUTERBOUND(#733,.T.);
#503=IFCCARTESIANPOINT((14.,0.3300000059604642));
#514=IFCCARTESIANPOINT((8.,0.330000005960464));
#518=IFCFACEOUTERBOUND(#738,.T.);
#517=IFCFACEOUTERBOUND(#737,.T.);
#516=IFCFACEOUTERBOUND(#736,.T.);
#522=IFCFACEOUTERBOUND(#741,.T.);
#521=IFCFACEOUTERBOUND(#740,.T.);
#520=IFCFACEOUTERBOUND(#739,.T.);
#523=IFCFACEOUTERBOUND(#742,.T.);
#525=IFCFACEOUTERBOUND(#743,.T.);
#527=IFCFACEOUTERBOUND(#745,.T.);
#526=IFCFACEOUTERBOUND(#744,.T.);
#528=IFCFACEOUTERBOUND(#746,.T.);
#519=IFCFACEOUTERBOUND(#747,.T.);
#529=IFCFACEOUTERBOUND(#748,.T.);
#524=IFCFACEOUTERBOUND(#749,.T.);
#530=IFCFACEOUTERBOUND(#750,.T.);
#533=IFCCARTESIANPOINT((0.,8.,0.));
#532=IFCFACEOUTERBOUND(#752,.T.);
#531=IFCFACEOUTERBOUND(#751,.T.);
#535=IFCDIRECTION((0.,-1.,0.));
#536=IFCCARTESIANPOINT((14.,0.,0.));
#537=IFCDIRECTION((0.,0.,1.));
#539=IFCFACEOUTERBOUND(#753,.T.);
#541=IFCQUANTITYLENGTH('Height',$,$,2.5);
#542=IFCQUANTITYLENGTH('Width',$,$,0.330000005960464);
#534=IFCDIRECTION((0.,0.,1.));
#538=IFCDIRECTION((0.,1.,0.));
#543=IFCQUANTITYLENGTH('Length',$,$,13.66999999403954);
#540=IFCQUANTITYLENGTH('Length',$,$,7.669999994039536);
#544=IFCQUANTITYLENGTH('Height',$,$,2.5);
#545=IFCQUANTITYLENGTH('Width',$,$,0.330000005960464);
#546=IFCQUANTITYAREA('GrossFootprintArea',$,$,4.511100079512586);
#547=IFCQUANTITYAREA('NetFootprintArea',$,$,4.511100079512586);
#548=IFCQUANTITYAREA('GrossFootprintArea',$,$,2.4222000398159);
#549=IFCQUANTITYAREA('GrossSideArea',$,$,34.17499998509884);
#550=IFCQUANTITYAREA('NetSideArea',$,$,34.17499998509884);
#551=IFCQUANTITYVOLUME('GrossVolume',$,$,11.27775019878148);
#552=IFCQUANTITYVOLUME('NetVolume',$,$,11.27775019878148);
#553=IFCQUANTITYAREA('NetFootprintArea',$,$,2.4222000398159);
#555=IFCQUANTITYAREA('GrossSideArea',$,$,18.34999997019768);
#556=IFCPROPERTYSINGLEVALUE('Renovation Status',$,IFCLABEL('Existing'),$);
#554=IFCPROPERTYSINGLEVALUE('Renovation Status',$,IFCLABEL('Existing'),$);
#557=IFCQUANTITYAREA('NetSideArea',$,$,18.34999997019768);
#559=IFCQUANTITYVOLUME('NetVolume',$,$,6.055500099539748);
#558=IFCQUANTITYVOLUME('GrossVolume',$,$,6.055500099539748);
#561=IFCQUANTITYLENGTH('Height',$,$,2.5);
#562=IFCFACEOUTERBOUND(#754,.T.);
#564=IFCFACEBOUND(#755,.T.);
#563=IFCQUANTITYLENGTH('Width',$,$,0.330000005960464);
#560=IFCQUANTITYLENGTH('Length',$,$,7.669999994039536);
#566=IFCFACEBOUND(#756,.T.);
#565=IFCQUANTITYAREA('GrossFootprintArea',$,$,2.531100043749802);
#567=IFCQUANTITYAREA('NetFootprintArea',$,$,2.531100043749802);
#569=IFCFACEBOUND(#757,.T.);
#571=IFCQUANTITYAREA('NetSideArea',$,$,19.17499998509884);
#574=IFCFACEOUTERBOUND(#758,.T.);
#576=IFCFACEOUTERBOUND(#761,.T.);
#575=IFCFACEOUTERBOUND(#760,.T.);
#570=IFCQUANTITYAREA('GrossSideArea',$,$,19.17499998509884);
#573=IFCQUANTITYVOLUME('NetVolume',$,$,6.327750109374516);
#572=IFCQUANTITYVOLUME('GrossVolume',$,$,6.327750109374516);
#577=IFCFACEOUTERBOUND(#762,.T.);
#578=IFCFACEOUTERBOUND(#763,.T.);
#583=IFCFACEOUTERBOUND(#765,.T.);
#584=IFCFACEOUTERBOUND(#766,.T.);
#581=IFCDIRECTION((0.,0.,1.));
#568=IFCFACEBOUND(#759,.T.);
#580=IFCCARTESIANPOINT((0.,0.,0.41));
#579=IFCFACEOUTERBOUND(#764,.T.);
#586=IFCFACEOUTERBOUND(#767,.T.);
#587=IFCFACEOUTERBOUND(#768,.T.);
#582=IFCDIRECTION((1.,0.,0.));
#588=IFCFACEOUTERBOUND(#769,.T.);
#585=IFCFACEOUTERBOUND(#770,.T.);
#591=IFCFACEOUTERBOUND(#771,.T.);
#592=IFCFACEOUTERBOUND(#772,.T.);
#590=IFCFACEOUTERBOUND(#773,.T.);
#594=IFCCARTESIANPOINT((0.,0.));
#595=IFCCARTESIANPOINT((14.,0.));
#593=IFCFACEOUTERBOUND(#774,.T.);
#589=IFCFACEOUTERBOUND(#775,.T.);
#598=IFCCARTESIANPOINT((0.,8.));
#597=IFCFACEOUTERBOUND(#776,.T.);
#596=IFCCARTESIANPOINT((14.,8.));
#600=IFCFACEOUTERBOUND(#777,.T.);
#599=IFCFACEOUTERBOUND(#778,.T.);
#604=IFCFACEBOUND(#780,.T.);
#601=IFCFACEOUTERBOUND(#779,.T.);
#603=IFCFACEBOUND(#781,.T.);
#602=IFCFACEBOUND(#782,.T.);
#606=IFCSURFACESTYLE('Beton gestrichen',.BOTH.,(#785));
#608=IFCFACEOUTERBOUND(#787,.T.);
#607=IFCFACEOUTERBOUND(#784,.T.);
#605=IFCFACEBOUND(#783,.T.);
#610=IFCFACEOUTERBOUND(#788,.T.);
#612=IFCFACEOUTERBOUND(#789,.T.);
#609=IFCFACEOUTERBOUND(#786,.T.);
#614=IFCFACEOUTERBOUND(#792,.T.);
#611=IFCFACEOUTERBOUND(#791,.T.);
#616=IFCCARTESIANPOINT((0.,0.));
#615=IFCMATERIALLAYERSET((#793),'Unterlagsboden Anhydrit 60mm 0.06');
#617=IFCCARTESIANPOINT((8.,0.));
#613=IFCFACEOUTERBOUND(#790,.T.);
#619=IFCCARTESIANPOINT((8.,0.1500000000000004));
#624=IFCDIRECTION((0.,0.,1.));
#622=IFCPROPERTYSINGLEVALUE('Renovation Status',$,IFCLABEL('Existing'),$);
#623=IFCCARTESIANPOINT((0.,0.,0.));
#618=IFCFACEOUTERBOUND(#794,.T.);
#621=IFCFACEOUTERBOUND(#795,.T.);
#620=IFCCARTESIANPOINT((0.,0.1500000000000004));
#626=IFCMATERIALLAYERSET((#796),'Beton, Stahlbeton 0.35');
#625=IFCDIRECTION((1.,0.,0.));
#627=IFCPROPERTYSINGLEVALUE('Renovation Status',$,IFCLABEL('Existing'),$);
#629=IFCCOLOURRGB($,0.7686274509803922,0.6235294117647059,0.5411764705882353);
#628=IFCCOLOURRGB($,0.6588235294117647,0.6588235294117647,0.6588235294117647);
#630=IFCQUANTITYLENGTH('Width',$,$,0.06);
#632=IFCQUANTITYAREA('GrossArea',$,$,112.);
#631=IFCQUANTITYLENGTH('Perimeter',$,$,44.);
#636=IFCQUANTITYLENGTH('Width',$,$,0.35);
#637=IFCQUANTITYLENGTH('Perimeter',$,$,44.);
#635=IFCQUANTITYVOLUME('NetVolume',$,$,5.718515985423051);
#633=IFCQUANTITYAREA('NetArea',$,$,95.30859975705147);
#634=IFCQUANTITYVOLUME('GrossVolume',$,$,6.719999999999962);
#646=IFCQUANTITYLENGTH('Height',$,$,2.5);
#644=IFCDIRECTION((0.,-1.,0.));
#643=IFCDIRECTION((0.,0.,1.));
#642=IFCCARTESIANPOINT((7.,8.,0.));
#641=IFCQUANTITYVOLUME('NetVolume',$,$,39.19999999999999);
#640=IFCQUANTITYVOLUME('GrossVolume',$,$,39.19999999999999);
#638=IFCQUANTITYAREA('GrossArea',$,$,112.);
#639=IFCQUANTITYAREA('NetArea',$,$,112.);
#645=IFCQUANTITYLENGTH('Length',$,$,7.339999988079072);
#647=IFCPROPERTYSINGLEVALUE('Renovation Status',$,IFCLABEL('Existing'),$);
#648=IFCFACEOUTERBOUND(#797,.T.);
#650=IFCFACEOUTERBOUND(#800,.T.);
#651=IFCFACEOUTERBOUND(#798,.T.);
#649=IFCFACEOUTERBOUND(#799,.T.);
#653=IFCQUANTITYAREA('GrossFootprintArea',$,$,1.100999998211854);
#652=IFCQUANTITYLENGTH('Width',$,$,0.15);
#659=IFCFACEOUTERBOUND(#801,.T.);
#658=IFCQUANTITYVOLUME('NetVolume',$,$,2.752499995529649);
#657=IFCQUANTITYVOLUME('GrossVolume',$,$,2.752499995529649);
#654=IFCQUANTITYAREA('NetFootprintArea',$,$,1.100999998211854);
#656=IFCQUANTITYAREA('NetSideArea',$,$,18.34999997019768);
#655=IFCQUANTITYAREA('GrossSideArea',$,$,18.34999997019768);
#662=IFCFACEOUTERBOUND(#802,.T.);
#663=IFCFACEOUTERBOUND(#804,.T.);
#660=IFCCARTESIANPOINT((0.,0.));
#666=IFCCARTESIANPOINT((7.,0.1500000000000004));
#661=IFCFACEOUTERBOUND(#805,.T.);
#665=IFCCARTESIANPOINT((7.,0.));
#667=IFCCARTESIANPOINT((0.,0.1500000000000004));
#664=IFCFACEOUTERBOUND(#803,.T.);
#669=IFCCARTESIANPOINT((0.,0.));
#668=IFCFACEOUTERBOUND(#806,.T.);
#670=IFCCARTESIANPOINT((4.,0.));
#671=IFCCARTESIANPOINT((4.,0.1500000000000004));
#673=IFCCARTESIANPOINT((7.,4.,0.));
#674=IFCDIRECTION((0.,0.,1.));
#675=IFCDIRECTION((1.,0.,0.));
#678=IFCFACEOUTERBOUND(#809,.T.);
#672=IFCCARTESIANPOINT((0.,0.1500000000000004));
#677=IFCFACEOUTERBOUND(#808,.T.);
#676=IFCFACEOUTERBOUND(#807,.T.);
#682=IFCFACEOUTERBOUND(#811,.T.);
#679=IFCFACEOUTERBOUND(#810,.T.);
#681=IFCFACEOUTERBOUND(#812,.T.);
#684=IFCFACEOUTERBOUND(#814,.T.);
#683=IFCFACEOUTERBOUND(#813,.T.);
#680=IFCFACEOUTERBOUND(#815,.T.);
#699=IFCQUANTITYLENGTH('Length',$,$,3.519999994039535);
#697=IFCQUANTITYVOLUME('GrossVolume',$,$,2.44499999776483);
#698=IFCQUANTITYVOLUME('NetVolume',$,$,2.44499999776483);
#696=IFCQUANTITYAREA('NetSideArea',$,$,16.29999998509884);
#694=IFCQUANTITYAREA('GrossSideArea',$,$,16.29999998509884);
#695=IFCDIRECTION((0.,1.,0.));
#702=IFCQUANTITYAREA('GrossFootprintArea',$,$,0.527999999105937);
#693=IFCQUANTITYAREA('NetFootprintArea',$,$,0.9779999991059325);
#692=IFCDIRECTION((0.,0.,1.));
#691=IFCQUANTITYAREA('GrossFootprintArea',$,$,0.9779999991059325);
#690=IFCQUANTITYLENGTH('Width',$,$,0.15);
#689=IFCQUANTITYLENGTH('Height',$,$,2.5);
#688=IFCQUANTITYLENGTH('Length',$,$,6.519999994039535);
#686=IFCPROPERTYSINGLEVALUE('Renovation Status',$,IFCLABEL('Existing'),$);
#685=IFCFACEOUTERBOUND(#816,.T.);
#687=IFCCARTESIANPOINT((10.40999999701977,4.,0.));
#709=IFCCARTESIANPOINT((0.,0.,0.));
#708=IFCPROPERTYSINGLEVALUE('Renovation Status',$,IFCLABEL('Existing'),$);
#707=IFCQUANTITYVOLUME('NetVolume',$,$,1.319999997764829);
#704=IFCQUANTITYAREA('GrossSideArea',$,$,8.79999998509884);
#705=IFCQUANTITYAREA('NetSideArea',$,$,8.79999998509884);
#700=IFCQUANTITYLENGTH('Height',$,$,2.5);
#703=IFCQUANTITYAREA('NetFootprintArea',$,$,0.527999999105937);
#701=IFCQUANTITYLENGTH('Width',$,$,0.15);
#721=IFCPOLYLOOP((#822,#819,#818,#823));
#719=IFCQUANTITYVOLUME('GrossVolume',$,$,39.2);
#720=IFCQUANTITYVOLUME('NetVolume',$,$,39.2);
#715=IFCPOLYLOOP((#818,#819,#820,#821));
#716=IFCQUANTITYLENGTH('Perimeter',$,$,44.);
#718=IFCQUANTITYAREA('NetArea',$,$,112.);
#717=IFCQUANTITYAREA('GrossArea',$,$,112.);
#713=IFCSURFACESTYLERENDERING(#817,0.,IFCNORMALISEDRATIOMEASURE(0.95),$,$,$,IFCNORMALISEDRATIOMEASURE(0.01),$,.NOTDEFINED.);
#714=IFCQUANTITYLENGTH('Width',$,$,0.35);
#706=IFCQUANTITYVOLUME('GrossVolume',$,$,1.319999997764829);
#712=IFCDIRECTION((1.,0.,0.));
#711=IFCDIRECTION((0.,0.,1.));
#710=IFCPROPERTYSINGLEVALUE('Renovation Status',$,IFCLABEL('Existing'),$);
#723=IFCPOLYLOOP((#822,#823,#825,#824));
#722=IFCPOLYLOOP((#824,#825,#821,#820));
#726=IFCPOLYLOOP((#826,#827,#828,#829,#830,#831));
#727=IFCPOLYLOOP((#827,#826,#832,#833));
#724=IFCPOLYLOOP((#819,#822,#824,#820));
#728=IFCPOLYLOOP((#834,#828,#827,#833));
#730=IFCPOLYLOOP((#828,#834,#835,#829));
#725=IFCPOLYLOOP((#823,#818,#821,#825));
#732=IFCPOLYLOOP((#844,#830,#829,#835));
#731=IFCELEMENTQUANTITY('1I5ydPSUVtv7PUpNx6_EFL',#2,'BaseQuantities',$,'Archicad BIM Base Quantities',(#840,#841,#842,#843));
#729=IFCELEMENTQUANTITY('3eCjd1FfkQ3v7dwWjalvP0',#2,'BaseQuantities',$,'Archicad BIM Base Quantities',(#836,#837,#838,#839));
#733=IFCPOLYLOOP((#844,#845,#831,#830));
#734=IFCPOLYLOOP((#833,#832,#845,#844,#835,#834));
#735=IFCPOLYLOOP((#832,#826,#831,#845));
#736=IFCPOLYLOOP((#846,#847,#848,#849,#850,#851));
#737=IFCPOLYLOOP((#847,#846,#852,#853));
#739=IFCPOLYLOOP((#854,#855,#850,#849));
#740=IFCPOLYLOOP((#856,#851,#850,#855));
#743=IFCPOLYLOOP((#852,#856,#855,#854,#865,#853));
#741=IFCPOLYLOOP((#857,#858,#863,#864));
#738=IFCPOLYLOOP((#858,#857,#859,#860,#861,#862,#866,#867));
#746=IFCPOLYLOOP((#860,#868,#869,#861));
#744=IFCPOLYLOOP((#847,#853,#865,#848));
#747=IFCPOLYLOOP((#854,#849,#848,#865));
#742=IFCPOLYLOOP((#859,#857,#864,#870));
#745=IFCPOLYLOOP((#862,#861,#869,#871));
#751=IFCPOLYLOOP((#872,#873,#867,#866));
#750=IFCPOLYLOOP((#862,#871,#872,#866));
#749=IFCPOLYLOOP((#846,#851,#856,#852));
#748=IFCPOLYLOOP((#860,#859,#870,#868));
#752=IFCPOLYLOOP((#864,#863,#873,#872,#871,#869,#868,#870));
#753=IFCPOLYLOOP((#863,#858,#867,#873));
#754=IFCPOLYLOOP((#874,#875,#876,#883));
#756=IFCPOLYLOOP((#878,#880,#881,#882));
#755=IFCPOLYLOOP((#877,#879,#885,#886));
#758=IFCPOLYLOOP((#876,#875,#884,#887));
#761=IFCPOLYLOOP((#874,#883,#889,#890));
#760=IFCPOLYLOOP((#883,#876,#887,#889));
#759=IFCPOLYLOOP((#891,#893,#896,#897));
#762=IFCPOLYLOOP((#894,#879,#877,#895));
#757=IFCPOLYLOOP((#888,#892,#899,#900));
#763=IFCPOLYLOOP((#898,#885,#879,#894));
#764=IFCPOLYLOOP((#875,#874,#890,#884));
#767=IFCPOLYLOOP((#882,#881,#901,#902));
#766=IFCPOLYLOOP((#903,#886,#885,#898));
#768=IFCPOLYLOOP((#878,#882,#902,#904));
#765=IFCPOLYLOOP((#895,#877,#886,#903));
#771=IFCPOLYLOOP((#897,#907,#905,#891));
#769=IFCPOLYLOOP((#891,#905,#906,#893));
#772=IFCPOLYLOOP((#908,#909,#899,#892));
#784=IFCPOLYLOOP((#914,#915,#916,#917));
#780=IFCPOLYLOOP((#912,#906,#905,#907));
#782=IFCPOLYLOOP((#898,#894,#895,#903));
#778=IFCPOLYLOOP((#909,#913,#900,#899));
#781=IFCPOLYLOOP((#904,#902,#901,#910));
#776=IFCPOLYLOOP((#880,#878,#904,#910));
#779=IFCPOLYLOOP((#890,#889,#887,#884));
#770=IFCPOLYLOOP((#881,#880,#910,#901));
#777=IFCPOLYLOOP((#913,#911,#888,#900));
#775=IFCPOLYLOOP((#893,#906,#912,#896));
#773=IFCPOLYLOOP((#896,#912,#907,#897));
#774=IFCPOLYLOOP((#911,#908,#892,#888));
#785=IFCSURFACESTYLERENDERING(#918,0.,IFCNORMALISEDRATIOMEASURE(0.85),$,$,$,IFCNORMALISEDRATIOMEASURE(0.11),$,.NOTDEFINED.);
#786=IFCPOLYLOOP((#919,#920,#921,#922));
#787=IFCPOLYLOOP((#915,#914,#923,#919,#922,#924,#925,#926));
#788=IFCPOLYLOOP((#924,#922,#921,#927));
#783=IFCPOLYLOOP((#911,#913,#909,#908));
#789=IFCPOLYLOOP((#923,#914,#917,#928));
#790=IFCPOLYLOOP((#929,#930,#926,#925));
#793=IFCMATERIALLAYER(#147,0.06,.U.);
#792=IFCPOLYLOOP((#916,#915,#926,#930));
#796=IFCMATERIALLAYER(#121,0.35,.U.);
#791=IFCPOLYLOOP((#919,#923,#928,#920));
#795=IFCPOLYLOOP((#924,#927,#929,#925));
#798=IFCPOLYLOOP((#931,#932,#933,#934));
#797=IFCPOLYLOOP((#936,#935,#932,#931,#937,#938,#939,#940));
#799=IFCPOLYLOOP((#935,#936,#941,#942));
#794=IFCPOLYLOOP((#917,#916,#930,#929,#927,#921,#920,#928));
#801=IFCPOLYLOOP((#931,#934,#943,#937));
#800=IFCPOLYLOOP((#935,#942,#933,#932));
#804=IFCPOLYLOOP((#940,#939,#944,#945));
#803=IFCPOLYLOOP((#936,#940,#945,#941));
#805=IFCPOLYLOOP((#943,#946,#938,#937));
#802=IFCPOLYLOOP((#944,#939,#938,#946));
#807=IFCPOLYLOOP((#947,#948,#949,#950,#951,#952,#953,#954));
#808=IFCPOLYLOOP((#948,#947,#955,#956));
#809=IFCPOLYLOOP((#949,#948,#956,#957));
#806=IFCPOLYLOOP((#945,#944,#946,#943,#934,#933,#942,#941));
#812=IFCPOLYLOOP((#952,#951,#960,#961));
#813=IFCPOLYLOOP((#958,#962,#954,#953));
#810=IFCPOLYLOOP((#950,#949,#957,#959));
#816=IFCPOLYLOOP((#956,#955,#962,#958,#961,#960,#959,#957));
#815=IFCPOLYLOOP((#950,#959,#960,#951));
#814=IFCPOLYLOOP((#955,#947,#954,#962));
#821=IFCCARTESIANPOINT((14.,0.,2.85));
#820=IFCCARTESIANPOINT((14.,0.330000005960464,2.85));
#811=IFCPOLYLOOP((#958,#953,#952,#961));
#819=IFCCARTESIANPOINT((14.,0.3300000059604651,2.5));
#818=IFCCARTESIANPOINT((14.,0.,2.5));
#817=IFCCOLOURRGB($,1.,1.,1.);
#822=IFCCARTESIANPOINT((0.,0.3300000059604642,2.5));
#825=IFCCARTESIANPOINT((0.,0.,2.85));
#824=IFCCARTESIANPOINT((0.,0.330000005960464,2.85));
#823=IFCCARTESIANPOINT((0.,0.,2.5));
#826=IFCCARTESIANPOINT((0.3300000059604642,0.,0.));
#831=IFCCARTESIANPOINT((0.,0.,0.));
#830=IFCCARTESIANPOINT((0.,0.,2.85));
#827=IFCCARTESIANPOINT((0.3300000059604642,0.,2.5));
#828=IFCCARTESIANPOINT((8.,0.,2.5));
#829=IFCCARTESIANPOINT((8.,0.,2.85));
#834=IFCCARTESIANPOINT((8.,0.3300000059604624,2.5));
#835=IFCCARTESIANPOINT((8.,0.3300000059604642,2.85));
#833=IFCCARTESIANPOINT((0.3300000059604642,0.3300000059604642,2.5));
#832=IFCCARTESIANPOINT((0.3300000059604642,0.3300000059604642,0.));
#836=IFCQUANTITYLENGTH('NetHeight',$,$,2.85);
#839=IFCQUANTITYAREA('GrossFloorArea',$,$,0.);
#837=IFCQUANTITYLENGTH('GrossHeight',$,$,2.85);
#840=IFCQUANTITYLENGTH('NetHeight',$,$,2.85);
#841=IFCQUANTITYLENGTH('GrossHeight',$,$,2.85);
#845=IFCCARTESIANPOINT((0.,0.3300000059604642,0.));
#846=IFCCARTESIANPOINT((0.3300000059604624,0.,2.5));
#847=IFCCARTESIANPOINT((14.,0.,2.5));
#844=IFCCARTESIANPOINT((0.,0.3300000059604642,2.85));
#838=IFCQUANTITYLENGTH('Height',$,$,2.85);
#843=IFCQUANTITYAREA('GrossFloorArea',$,$,0.);
#842=IFCQUANTITYLENGTH('Height',$,$,2.85);
#849=IFCCARTESIANPOINT((0.,0.,2.85));
#850=IFCCARTESIANPOINT((0.,0.,0.));
#848=IFCCARTESIANPOINT((14.,0.,2.85));
#855=IFCCARTESIANPOINT((0.,0.3300000059604642,0.));
#854=IFCCARTESIANPOINT((0.,0.3300000059604642,2.85));
#851=IFCCARTESIANPOINT((0.3300000059604642,0.,0.));
#853=IFCCARTESIANPOINT((14.,0.3300000059604633,2.5));
#852=IFCCARTESIANPOINT((0.3300000059604642,0.3300000059604642,2.5));
#856=IFCCARTESIANPOINT((0.3300000059604642,0.3300000059604642,0.));
#857=IFCCARTESIANPOINT((7.669999994039536,0.3300000059604633,2.5));
#859=IFCCARTESIANPOINT((0.3300000059604642,0.3300000059604642,2.5));
#858=IFCCARTESIANPOINT((7.669999994039536,0.3300000059604633,0.));
#860=IFCCARTESIANPOINT((0.3300000059604642,0.3300000059604642,0.));
#863=IFCCARTESIANPOINT((7.669999994039536,0.,0.));
#861=IFCCARTESIANPOINT((0.,0.330000005960464,0.));
#862=IFCCARTESIANPOINT((0.,0.330000005960464,2.85));
#865=IFCCARTESIANPOINT((14.,0.3300000059604642,2.85));
#866=IFCCARTESIANPOINT((8.,0.330000005960464,2.85));
#867=IFCCARTESIANPOINT((8.,0.330000005960464,0.));
#868=IFCCARTESIANPOINT((0.3300000059604642,0.,0.));
#864=IFCCARTESIANPOINT((7.669999994039536,0.,2.5));
#872=IFCCARTESIANPOINT((8.,0.,2.85));
#873=IFCCARTESIANPOINT((8.,0.,0.));
#871=IFCCARTESIANPOINT((0.,0.,2.85));
#870=IFCCARTESIANPOINT((0.3300000059604642,0.,2.5));
#869=IFCCARTESIANPOINT((0.,0.,0.));
#877=IFCCARTESIANPOINT((6.999999999999999,0.3300000059604642,-0.05999999999999989));
#875=IFCCARTESIANPOINT((0.,8.,-0.06));
#876=IFCCARTESIANPOINT((14.,8.,-0.06));
#874=IFCCARTESIANPOINT((0.,0.,-0.06));
#878=IFCCARTESIANPOINT((13.66999999403954,4.,-0.05999999999999989));
#880=IFCCARTESIANPOINT((7.15,4.,-0.05999999999999989));
#881=IFCCARTESIANPOINT((7.149999999999999,0.3300000059604642,-0.05999999999999989));
#882=IFCCARTESIANPOINT((13.66999999403954,0.3300000059604642,-0.05999999999999989));
#883=IFCCARTESIANPOINT((14.,0.,-0.06));
#884=IFCCARTESIANPOINT((0.,8.,0.));
#885=IFCCARTESIANPOINT((0.3300000059604642,7.669999994039536,-0.05999999999999989));
#886=IFCCARTESIANPOINT((0.3300000059604633,0.3300000059604642,-0.05999999999999989));
#888=IFCCARTESIANPOINT((10.40999999701977,4.15,-0.05999999999999989));
#889=IFCCARTESIANPOINT((14.,0.,0.));
#879=IFCCARTESIANPOINT((7.,7.669999994039536,-0.05999999999999989));
#887=IFCCARTESIANPOINT((14.,8.,0.));
#891=IFCCARTESIANPOINT((7.15,7.669999994039536,-0.05999999999999989));
#890=IFCCARTESIANPOINT((0.,0.,0.));
#892=IFCCARTESIANPOINT((13.66999999403954,4.15,-0.05999999999999989));
#893=IFCCARTESIANPOINT((7.15,4.15,-0.05999999999999989));
#895=IFCCARTESIANPOINT((6.999999999999999,0.3300000059604642,0.));
#910=IFCCARTESIANPOINT((7.15,4.,0.));
#906=IFCCARTESIANPOINT((7.15,4.15,0.));
#909=IFCCARTESIANPOINT((13.66999999403954,7.669999994039536,0.));
#908=IFCCARTESIANPOINT((13.66999999403954,4.15,0.));
#907=IFCCARTESIANPOINT((10.25999999701977,7.669999994039536,0.));
#905=IFCCARTESIANPOINT((7.15,7.669999994039536,0.));
#903=IFCCARTESIANPOINT((0.3300000059604633,0.3300000059604642,0.));
#904=IFCCARTESIANPOINT((13.66999999403954,4.,0.));
#902=IFCCARTESIANPOINT((13.66999999403954,0.3300000059604642,0.));
#900=IFCCARTESIANPOINT((10.40999999701977,7.669999994039536,-0.05999999999999989));
#901=IFCCARTESIANPOINT((7.149999999999999,0.3300000059604642,0.));
#898=IFCCARTESIANPOINT((0.3300000059604642,7.669999994039536,0.));
#899=IFCCARTESIANPOINT((13.66999999403954,7.669999994039536,-0.05999999999999989));
#897=IFCCARTESIANPOINT((10.25999999701977,7.669999994039536,-0.05999999999999989));
#894=IFCCARTESIANPOINT((7.,7.669999994039536,0.));
#896=IFCCARTESIANPOINT((10.25999999701977,4.15,-0.05999999999999989));
#912=IFCCARTESIANPOINT((10.25999999701977,4.15,0.));
#911=IFCCARTESIANPOINT((10.40999999701977,4.15,0.));
#919=IFCCARTESIANPOINT((0.3300000059604642,0.1500000000000004,0.));
#917=IFCCARTESIANPOINT((7.669999994039536,0.,2.5));
#915=IFCCARTESIANPOINT((7.669999994039536,0.1499999999999986,0.));
#916=IFCCARTESIANPOINT((7.669999994039536,0.,0.));
#913=IFCCARTESIANPOINT((10.40999999701977,7.669999994039536,0.));
#914=IFCCARTESIANPOINT((7.669999994039536,0.1499999999999995,2.5));
#921=IFCCARTESIANPOINT((0.,0.,0.));
#922=IFCCARTESIANPOINT((0.,0.1500000000000004,0.));
#918=IFCCOLOURRGB($,0.7803921568627451,0.7803921568627451,0.7803921568627451);
#920=IFCCARTESIANPOINT((0.3300000059604642,0.,0.));
#924=IFCCARTESIANPOINT((0.,0.1500000000000004,2.85));
#923=IFCCARTESIANPOINT((0.3300000059604642,0.1500000000000004,2.5));
#933=IFCCARTESIANPOINT((0.,0.,0.));
#934=IFCCARTESIANPOINT((0.,0.,2.85));
#931=IFCCARTESIANPOINT((0.,0.1500000000000004,2.85));
#932=IFCCARTESIANPOINT((0.,0.1500000000000004,0.));
#930=IFCCARTESIANPOINT((8.,0.,0.));
#929=IFCCARTESIANPOINT((8.,0.,2.85));
#928=IFCCARTESIANPOINT((0.3300000059604642,0.,2.5));
#927=IFCCARTESIANPOINT((0.,0.,2.85));
#926=IFCCARTESIANPOINT((8.,0.1500000000000004,0.));
#925=IFCCARTESIANPOINT((8.,0.1500000000000004,2.85));
#935=IFCCARTESIANPOINT((0.1500000000000004,0.1500000000000004,0.));
#936=IFCCARTESIANPOINT((0.1500000000000004,0.1500000000000004,2.5));
#937=IFCCARTESIANPOINT((7.,0.1500000000000004,2.85));
#938=IFCCARTESIANPOINT((7.,0.1500000000000004,0.));
#941=IFCCARTESIANPOINT((0.1500000000000004,0.,2.5));
#939=IFCCARTESIANPOINT((6.669999994039536,0.1500000000000004,0.));
#940=IFCCARTESIANPOINT((6.669999994039536,0.1500000000000004,2.5));
#942=IFCCARTESIANPOINT((0.1500000000000004,0.,0.));
#949=IFCCARTESIANPOINT((3.669999994039536,0.,2.5));
#950=IFCCARTESIANPOINT((3.669999994039536,0.,0.));
#947=IFCCARTESIANPOINT((0.1500000000000004,0.,0.));
#946=IFCCARTESIANPOINT((7.,0.,0.));
#945=IFCCARTESIANPOINT((6.669999994039536,0.,2.5));
#943=IFCCARTESIANPOINT((7.,0.,2.85));
#944=IFCCARTESIANPOINT((6.669999994039536,0.,0.));
#951=IFCCARTESIANPOINT((4.,0.,0.));
#952=IFCCARTESIANPOINT((4.,0.,2.85));
#953=IFCCARTESIANPOINT((0.,0.,2.85));
#948=IFCCARTESIANPOINT((0.1500000000000004,0.,2.5));
#959=IFCCARTESIANPOINT((3.669999994039536,0.1500000000000004,0.));
#957=IFCCARTESIANPOINT((3.669999994039536,0.1500000000000004,2.5));
#958=IFCCARTESIANPOINT((0.,0.1500000000000004,2.85));
#956=IFCCARTESIANPOINT((0.1500000000000004,0.1500000000000004,2.5));
#955=IFCCARTESIANPOINT((0.1500000000000004,0.1500000000000004,0.));
#954=IFCCARTESIANPOINT((0.,0.,0.));
#960=IFCCARTESIANPOINT((4.,0.1500000000000004,0.));
#962=IFCCARTESIANPOINT((0.,0.1500000000000004,0.));
#961=IFCCARTESIANPOINT((4.,0.1500000000000004,2.85));
ENDSEC;
END-ISO-10303-21;
